<svg width="49" height="49" viewBox="0 0 49 49" fill="none" xmlns="http://www.w3.org/2000/svg">
<circle cx="24.5" cy="24.5" r="24.5" fill="white" style="fill:white;fill-opacity:1;"/>
<path d="M25 13C21.74 13 21.333 13.015 20.053 13.072C18.775 13.132 17.905 13.333 17.14 13.63C16.351 13.936 15.681 14.347 15.014 15.014C14.347 15.681 13.935 16.35 13.63 17.14C13.333 17.905 13.131 18.775 13.072 20.053C13.012 21.333 13 21.74 13 25C13 28.26 13.015 28.667 13.072 29.947C13.132 31.224 13.333 32.095 13.63 32.86C13.936 33.648 14.347 34.319 15.014 34.986C15.681 35.652 16.35 36.065 17.14 36.37C17.906 36.666 18.776 36.869 20.053 36.928C21.333 36.988 21.74 37 25 37C28.26 37 28.667 36.985 29.947 36.928C31.224 36.868 32.095 36.666 32.86 36.37C33.648 36.064 34.319 35.652 34.986 34.986C35.652 34.319 36.065 33.651 36.37 32.86C36.666 32.095 36.869 31.224 36.928 29.947C36.988 28.667 37 28.26 37 25C37 21.74 36.985 21.333 36.928 20.053C36.868 18.776 36.666 17.904 36.37 17.14C36.064 16.351 35.652 15.681 34.986 15.014C34.319 14.347 33.651 13.935 32.86 13.63C32.095 13.333 31.224 13.131 29.947 13.072C28.667 13.012 28.26 13 25 13ZM25 15.16C28.203 15.16 28.585 15.176 29.85 15.231C31.02 15.286 31.655 15.48 32.077 15.646C32.639 15.863 33.037 16.123 33.459 16.542C33.878 16.962 34.138 17.361 34.355 17.923C34.519 18.345 34.715 18.98 34.768 20.15C34.825 21.416 34.838 21.796 34.838 25C34.838 28.204 34.823 28.585 34.764 29.85C34.703 31.02 34.508 31.655 34.343 32.077C34.119 32.639 33.864 33.037 33.444 33.459C33.025 33.878 32.62 34.138 32.064 34.355C31.644 34.519 30.999 34.715 29.829 34.768C28.555 34.825 28.18 34.838 24.97 34.838C21.759 34.838 21.384 34.823 20.111 34.764C18.94 34.703 18.295 34.508 17.875 34.343C17.306 34.119 16.915 33.864 16.496 33.444C16.075 33.025 15.806 32.62 15.596 32.064C15.431 31.644 15.237 30.999 15.176 29.829C15.131 28.569 15.115 28.18 15.115 24.985C15.115 21.789 15.131 21.399 15.176 20.124C15.237 18.954 15.431 18.31 15.596 17.89C15.806 17.32 16.075 16.93 16.496 16.509C16.915 16.09 17.306 15.82 17.875 15.611C18.295 15.445 18.926 15.25 20.096 15.19C21.371 15.145 21.746 15.13 24.955 15.13L25 15.16ZM25 18.838C21.595 18.838 18.838 21.598 18.838 25C18.838 28.405 21.598 31.162 25 31.162C28.405 31.162 31.162 28.402 31.162 25C31.162 21.595 28.402 18.838 25 18.838ZM25 29C22.79 29 21 27.21 21 25C21 22.79 22.79 21 25 21C27.21 21 29 22.79 29 25C29 27.21 27.21 29 25 29ZM32.846 18.595C32.846 19.39 32.2 20.035 31.406 20.035C30.611 20.035 29.966 19.389 29.966 18.595C29.966 17.801 30.612 17.156 31.406 17.156C32.199 17.155 32.846 17.801 32.846 18.595Z" fill="black" style="fill:black;fill-opacity:1;"/>
</svg>
