<svg width="49" height="49" viewBox="0 0 49 49" fill="none" xmlns="http://www.w3.org/2000/svg">
<circle cx="24.5" cy="24.5" r="24.5" fill="white" style="fill:white;fill-opacity:1;"/>
<path d="M33.447 33.452H29.893V27.883C29.893 26.555 29.866 24.846 28.041 24.846C26.188 24.846 25.905 26.291 25.905 27.785V33.452H22.351V22H25.765V23.561H25.811C26.288 22.661 27.448 21.711 29.181 21.711C32.782 21.711 33.448 24.081 33.448 27.166L33.447 33.452ZM18.337 20.433C17.193 20.433 16.274 19.507 16.274 18.368C16.274 17.23 17.194 16.305 18.337 16.305C19.477 16.305 20.401 17.23 20.401 18.368C20.401 19.507 19.476 20.433 18.337 20.433ZM20.119 33.452H16.555V22H20.119V33.452ZM35.225 13H14.771C13.792 13 13 13.774 13 14.729V35.271C13 36.227 13.792 37 14.771 37H35.222C36.2 37 37 36.227 37 35.271V14.729C37 13.774 36.2 13 35.222 13H35.225Z" fill="black" style="fill:black;fill-opacity:1;"/>
</svg>
