<svg width="18" height="22" viewBox="0 0 18 22" fill="none" xmlns="http://www.w3.org/2000/svg">
<path d="M14.9014 7.76471H12.8571V1.29412C12.8571 0.582353 12.2786 0 11.5714 0H6.42857C5.72143 0 5.14286 0.582353 5.14286 1.29412V7.76471H3.09857C1.95429 7.76471 1.37571 9.16235 2.18571 9.97765L8.08714 15.9176C8.58857 16.4224 9.39857 16.4224 9.9 15.9176L15.8014 9.97765C16.6114 9.16235 16.0457 7.76471 14.9014 7.76471ZM0 20.7059C0 21.4176 0.578571 22 1.28571 22H16.7143C17.4214 22 18 21.4176 18 20.7059C18 19.9941 17.4214 19.4118 16.7143 19.4118H1.28571C0.578571 19.4118 0 19.9941 0 20.7059Z" fill="black" style="fill:black;fill-opacity:1;"/>
</svg>
