<svg width="52" height="24" viewBox="0 0 52 24" fill="none" xmlns="http://www.w3.org/2000/svg">
<path d="M24.247 1.51446V3.02902H23.3144H22.3818V4.31058V5.59213H23.3144H24.247V9.96106V14.33L23.7924 14.0271C21.8689 12.7572 18.908 13.4213 17.3459 15.4717C16.6232 16.4271 16.3201 17.3941 16.3201 18.7572C16.3201 21.029 17.3459 22.7067 19.3043 23.6154C19.9222 23.9067 20.1203 23.9417 21.2161 23.9417C22.5917 23.9417 23.1395 23.7669 23.9322 23.0679L24.3636 22.695V23.231V23.7669H25.879H27.3944V14.6795V5.59213H28.5602H29.7259V4.31058V3.02902H28.5602H27.3944V1.51446V-0.000102997H25.8207H24.247V1.51446ZM22.6733 16.4387C23.3727 16.6368 24.0721 17.3941 24.2237 18.1397C24.6783 20.2601 22.5334 21.7863 20.6099 20.7145C19.5724 20.1319 19.1994 18.5941 19.8172 17.4989C20.3651 16.5319 21.4959 16.1125 22.6733 16.4387Z" fill="white" style="fill:white;fill-opacity:1;"/>
<path d="M4.83775 2.95933C4.17329 3.16903 3.84689 3.35544 3.41557 3.76321L3.03088 4.12438V3.5768V3.02923H1.51544H0V9.96127V16.8933H1.57373H3.14745V14.6797V12.4778L3.56711 12.7574C4.87272 13.6428 7.11091 13.5962 8.62635 12.6409C10.27 11.604 11.0744 10.0894 11.0744 8.03894C11.0744 5.48748 9.68716 3.56515 7.40234 2.95933C6.67959 2.76127 5.45558 2.76127 4.83775 2.95933ZM6.2133 5.837C6.71456 5.9768 7.39068 6.52438 7.63548 6.9904C8.59138 8.84282 6.81948 10.9516 4.79112 10.369C3.71866 10.0661 3.08917 9.22729 3.08917 8.09719C3.08917 6.44282 4.55798 5.37098 6.2133 5.837Z" fill="white" style="fill:white;fill-opacity:1;"/>
<path d="M15.6441 2.97076C13.2427 3.64649 11.7739 5.58047 11.7739 8.08533C11.7739 9.68144 12.1936 10.7766 13.1845 11.8251C14.1753 12.8737 15.4809 13.3979 17.1363 13.3979C18.7216 13.3979 20.1322 12.862 21.0414 11.93C21.5427 11.4174 22.0673 10.497 22.2188 9.86785L22.2887 9.55329H20.6684H19.048L18.7916 9.9028C18.4185 10.4038 17.9056 10.6251 17.1363 10.6251C16.227 10.6251 15.5858 10.264 15.2012 9.52999C14.8398 8.83096 14.6882 8.85426 18.7216 8.85426H22.417L22.347 7.71251C22.2188 5.37076 21.2396 3.8562 19.3744 3.13387C18.5118 2.80765 16.5534 2.71445 15.6441 2.97076ZM18.1038 5.52222C18.5235 5.68533 19.118 6.3261 19.118 6.59406C19.118 6.73387 18.7683 6.75717 17.078 6.75717H15.0263L15.2012 6.43096C15.411 6.03484 15.8306 5.63872 16.2037 5.48727C16.635 5.32416 17.6725 5.33581 18.1038 5.52222Z" fill="white" style="fill:white;fill-opacity:1;"/>
<path d="M47.2118 5.46408C47.2118 5.52233 47.3284 5.70874 47.4683 5.89514C47.7131 6.19806 47.7131 6.20971 47.5033 6.12815C46.664 5.77864 45.5099 5.76699 44.6473 6.08155L44.2393 6.23301L45.0553 6.29126C46.5357 6.41941 47.8647 7.28155 48.4125 8.4932C48.7389 9.19223 48.7506 10.4388 48.4592 11.1728C47.9696 12.3728 46.6873 13.5495 45.6848 13.701C45.2651 13.7709 45.1951 13.8408 44.519 14.9942C44.1227 15.6583 43.773 16.1825 43.7497 16.1476C43.7147 16.1126 43.3883 15.5767 43.0269 14.9476L42.3624 13.8058L40.4157 13.7709C39.3432 13.7592 38.4689 13.7709 38.4689 13.8058C38.4689 13.8408 39.2033 14.9359 40.1009 16.2408C40.9985 17.5456 41.733 18.6408 41.733 18.6757C41.733 18.7107 40.9752 19.9107 40.0427 21.3437L38.364 23.9417L40.1942 23.9767C41.1967 23.9883 42.071 23.9883 42.141 23.9534C42.2226 23.9301 42.6072 23.3359 43.0152 22.6485C43.8546 21.1922 43.6681 21.1689 44.7988 22.9398L45.4749 24H47.3284H49.1819L47.5033 21.4369C46.5707 20.0272 45.813 18.8388 45.813 18.7922C45.813 18.7456 46.1627 18.1748 46.6057 17.5107L47.3867 16.3223L47.9696 16.3806C48.3076 16.4272 48.7739 16.3922 49.077 16.299L49.6016 16.1592L49.1703 16.0311L48.7273 15.9029L49.3218 15.6932C50.336 15.332 51.4085 14.0971 51.4085 13.2932C51.4085 13.0252 51.3968 13.0252 51.117 13.2116L50.8139 13.4097L51.1636 12.7922C51.8747 11.534 52.0729 9.58835 51.6066 8.50485L51.4318 8.09708L51.4201 8.4699C51.3968 9.21553 51.2686 9.26213 51.0587 8.59806C50.7207 7.50291 49.8114 6.43107 48.7856 5.90679C48.2843 5.66213 47.2118 5.35922 47.2118 5.46408Z" fill="white" style="fill:white;fill-opacity:1;"/>
<path d="M32.1973 13.5728C29.796 14.2485 28.3271 16.1825 28.3271 18.6874C28.3271 20.2835 28.7468 21.3786 29.7377 22.4272C30.7285 23.4757 32.0341 24 33.6895 24C35.2749 24 36.6854 23.4641 37.5946 22.532C38.0959 22.0194 38.6205 21.099 38.772 20.4699L38.842 20.1553H37.2216H35.6013L35.3448 20.5049C34.9718 21.0058 34.4589 21.2272 33.6895 21.2272C32.7802 21.2272 32.1391 20.866 31.7544 20.132C31.393 19.433 31.2415 19.4563 35.2749 19.4563H38.9702L38.9003 18.3146C38.772 15.9728 37.7928 14.4582 35.9277 13.7359C35.065 13.4097 33.1066 13.3165 32.1973 13.5728ZM34.657 16.1243C35.0767 16.2874 35.6712 16.9282 35.6712 17.1961C35.6712 17.3359 35.3215 17.3592 33.6312 17.3592H31.5795L31.7544 17.033C31.9642 16.6369 32.3839 16.2408 32.7569 16.0893C33.1882 15.9262 34.2257 15.9379 34.657 16.1243Z" fill="white" style="fill:white;fill-opacity:1;"/>
</svg>
